<mxfile host="app.diagrams.net" modified="2022-12-28T12:28:51.468Z" agent="5.0 (Windows NT 10.0; Win64; x64) AppleWebKit/537.36 (KHTML, like Gecko) Chrome/106.0.0.0 YaBrowser/22.11.5.716 Yowser/2.5 Safari/537.36" etag="aI4adLfyT3wB9qBX352b" version="20.7.4" type="github">
  <diagram id="zggIHsrMBkjJEhvw41WT" name="Страница 1">
    <mxGraphModel dx="1386" dy="791" grid="1" gridSize="10" guides="1" tooltips="1" connect="1" arrows="1" fold="1" page="0" pageScale="1" pageWidth="827" pageHeight="1169" math="0" shadow="0">
      <root>
        <mxCell id="0" />
        <mxCell id="1" parent="0" />
        <mxCell id="dY04rev5DjBfGKGZnwtW-1" style="edgeStyle=orthogonalEdgeStyle;rounded=0;orthogonalLoop=1;jettySize=auto;html=1;fontSize=12;endArrow=blockThin;endFill=1;" parent="1" source="dY04rev5DjBfGKGZnwtW-2" target="dY04rev5DjBfGKGZnwtW-4" edge="1">
          <mxGeometry relative="1" as="geometry">
            <Array as="points">
              <mxPoint x="774" y="294" />
            </Array>
          </mxGeometry>
        </mxCell>
        <mxCell id="dY04rev5DjBfGKGZnwtW-2" value="Выбор магазина" style="rounded=0;whiteSpace=wrap;html=1;" parent="1" vertex="1">
          <mxGeometry x="524" y="264" width="120" height="60" as="geometry" />
        </mxCell>
        <mxCell id="dY04rev5DjBfGKGZnwtW-3" value="Определённый экран" style="edgeStyle=orthogonalEdgeStyle;rounded=0;orthogonalLoop=1;jettySize=auto;html=1;entryX=0.5;entryY=0;entryDx=0;entryDy=0;fontSize=12;endArrow=blockThin;endFill=1;" parent="1" source="dY04rev5DjBfGKGZnwtW-4" target="dY04rev5DjBfGKGZnwtW-6" edge="1">
          <mxGeometry x="-0.0591" y="10" relative="1" as="geometry">
            <mxPoint as="offset" />
            <Array as="points">
              <mxPoint x="984" y="354" />
            </Array>
          </mxGeometry>
        </mxCell>
        <mxCell id="dY04rev5DjBfGKGZnwtW-4" value="&lt;span style=&quot;font-size: 12px;&quot;&gt;&lt;font style=&quot;vertical-align: inherit;&quot;&gt;&lt;font style=&quot;vertical-align: inherit;&quot;&gt;&lt;font style=&quot;vertical-align: inherit;&quot;&gt;&lt;font style=&quot;vertical-align: inherit;&quot;&gt;Выбор экрана&lt;/font&gt;&lt;/font&gt;&lt;/font&gt;&lt;/font&gt;&lt;/span&gt;" style="rounded=0;whiteSpace=wrap;html=1;fontSize=10;" parent="1" vertex="1">
          <mxGeometry x="714" y="324" width="120" height="60" as="geometry" />
        </mxCell>
        <mxCell id="dY04rev5DjBfGKGZnwtW-5" value="проверка экрана&amp;nbsp;" style="edgeStyle=orthogonalEdgeStyle;rounded=0;orthogonalLoop=1;jettySize=auto;html=1;entryX=0.372;entryY=0.022;entryDx=0;entryDy=0;entryPerimeter=0;fontSize=12;endArrow=blockThin;endFill=1;" parent="1" source="dY04rev5DjBfGKGZnwtW-6" target="dY04rev5DjBfGKGZnwtW-8" edge="1">
          <mxGeometry x="-0.0739" y="10" relative="1" as="geometry">
            <Array as="points">
              <mxPoint x="1209" y="414" />
            </Array>
            <mxPoint as="offset" />
          </mxGeometry>
        </mxCell>
        <mxCell id="dY04rev5DjBfGKGZnwtW-6" value="&lt;font style=&quot;vertical-align: inherit;&quot;&gt;&lt;font style=&quot;vertical-align: inherit;&quot;&gt;&lt;font style=&quot;vertical-align: inherit;&quot;&gt;&lt;font style=&quot;vertical-align: inherit;&quot;&gt;Заказ экрана&lt;/font&gt;&lt;/font&gt;&lt;/font&gt;&lt;/font&gt;" style="rounded=0;whiteSpace=wrap;html=1;fontSize=12;" parent="1" vertex="1">
          <mxGeometry x="924" y="384" width="120" height="60" as="geometry" />
        </mxCell>
        <mxCell id="dY04rev5DjBfGKGZnwtW-7" style="edgeStyle=orthogonalEdgeStyle;rounded=0;orthogonalLoop=1;jettySize=auto;html=1;fontSize=12;endArrow=blockThin;endFill=1;" parent="1" source="dY04rev5DjBfGKGZnwtW-8" edge="1">
          <mxGeometry relative="1" as="geometry">
            <mxPoint x="1474" y="484" as="targetPoint" />
            <Array as="points">
              <mxPoint x="1444" y="484" />
            </Array>
          </mxGeometry>
        </mxCell>
        <mxCell id="dY04rev5DjBfGKGZnwtW-8" value="&lt;font style=&quot;vertical-align: inherit;&quot;&gt;&lt;font style=&quot;vertical-align: inherit;&quot;&gt;&lt;font style=&quot;vertical-align: inherit;&quot;&gt;&lt;font style=&quot;vertical-align: inherit;&quot;&gt;&lt;font style=&quot;vertical-align: inherit;&quot;&gt;&lt;font style=&quot;vertical-align: inherit;&quot;&gt;Доставка экрана&lt;/font&gt;&lt;/font&gt;&lt;/font&gt;&lt;/font&gt;&lt;/font&gt;&lt;/font&gt;" style="rounded=0;whiteSpace=wrap;html=1;fontSize=12;" parent="1" vertex="1">
          <mxGeometry x="1164" y="444" width="120" height="60" as="geometry" />
        </mxCell>
        <mxCell id="dY04rev5DjBfGKGZnwtW-9" style="edgeStyle=orthogonalEdgeStyle;rounded=0;orthogonalLoop=1;jettySize=auto;html=1;fontSize=12;endArrow=blockThin;endFill=1;" parent="1" target="dY04rev5DjBfGKGZnwtW-2" edge="1">
          <mxGeometry relative="1" as="geometry">
            <Array as="points">
              <mxPoint x="544" y="444" />
              <mxPoint x="544" y="444" />
            </Array>
            <mxPoint x="544" y="580" as="sourcePoint" />
          </mxGeometry>
        </mxCell>
        <mxCell id="dY04rev5DjBfGKGZnwtW-10" style="edgeStyle=orthogonalEdgeStyle;rounded=0;orthogonalLoop=1;jettySize=auto;html=1;fontSize=12;endArrow=blockThin;endFill=1;" parent="1" target="dY04rev5DjBfGKGZnwtW-4" edge="1">
          <mxGeometry relative="1" as="geometry">
            <Array as="points">
              <mxPoint x="774" y="464" />
              <mxPoint x="774" y="464" />
            </Array>
            <mxPoint x="774" y="584" as="sourcePoint" />
          </mxGeometry>
        </mxCell>
        <mxCell id="dY04rev5DjBfGKGZnwtW-11" value="Рейтинг магазинов" style="text;html=1;strokeColor=none;fillColor=none;align=center;verticalAlign=middle;whiteSpace=wrap;rounded=0;fontSize=12;" parent="1" vertex="1">
          <mxGeometry x="634" y="516.5" width="60" height="30" as="geometry" />
        </mxCell>
        <mxCell id="dY04rev5DjBfGKGZnwtW-12" style="edgeStyle=orthogonalEdgeStyle;rounded=0;orthogonalLoop=1;jettySize=auto;html=1;entryX=0.5;entryY=1;entryDx=0;entryDy=0;fontSize=12;endArrow=blockThin;endFill=1;" parent="1" target="dY04rev5DjBfGKGZnwtW-6" edge="1">
          <mxGeometry relative="1" as="geometry">
            <mxPoint x="984" y="584" as="sourcePoint" />
          </mxGeometry>
        </mxCell>
        <mxCell id="dY04rev5DjBfGKGZnwtW-13" value="&lt;font style=&quot;vertical-align: inherit;&quot;&gt;&lt;font style=&quot;vertical-align: inherit;&quot;&gt;Магазин&lt;/font&gt;&lt;/font&gt;" style="text;html=1;strokeColor=none;fillColor=none;align=center;verticalAlign=middle;whiteSpace=wrap;rounded=0;fontSize=12;" parent="1" vertex="1">
          <mxGeometry x="824" y="516.5" width="120" height="30" as="geometry" />
        </mxCell>
        <mxCell id="dY04rev5DjBfGKGZnwtW-14" style="edgeStyle=orthogonalEdgeStyle;rounded=0;orthogonalLoop=1;jettySize=auto;html=1;entryX=0.5;entryY=1;entryDx=0;entryDy=0;fontSize=12;endArrow=blockThin;endFill=1;" parent="1" target="dY04rev5DjBfGKGZnwtW-8" edge="1">
          <mxGeometry relative="1" as="geometry">
            <mxPoint x="1224" y="584" as="sourcePoint" />
            <Array as="points">
              <mxPoint x="1224" y="559" />
            </Array>
          </mxGeometry>
        </mxCell>
        <mxCell id="dY04rev5DjBfGKGZnwtW-15" value="Доставщик" style="text;html=1;strokeColor=none;fillColor=none;align=center;verticalAlign=middle;whiteSpace=wrap;rounded=0;fontSize=12;" parent="1" vertex="1">
          <mxGeometry x="1074" y="516.5" width="60" height="30" as="geometry" />
        </mxCell>
        <mxCell id="dY04rev5DjBfGKGZnwtW-16" style="edgeStyle=orthogonalEdgeStyle;rounded=0;orthogonalLoop=1;jettySize=auto;html=1;fontSize=12;endArrow=blockThin;endFill=1;entryX=0;entryY=0.5;entryDx=0;entryDy=0;" parent="1" target="dY04rev5DjBfGKGZnwtW-8" edge="1">
          <mxGeometry relative="1" as="geometry">
            <mxPoint x="1134" y="544" as="targetPoint" />
            <mxPoint x="414.090909090909" y="214" as="sourcePoint" />
            <Array as="points">
              <mxPoint x="414" y="474" />
            </Array>
          </mxGeometry>
        </mxCell>
        <mxCell id="dY04rev5DjBfGKGZnwtW-17" style="edgeStyle=orthogonalEdgeStyle;rounded=0;orthogonalLoop=1;jettySize=auto;html=1;fontSize=12;endArrow=blockThin;endFill=1;" parent="1" edge="1">
          <mxGeometry relative="1" as="geometry">
            <mxPoint x="454.090909090909" y="214" as="sourcePoint" />
            <mxPoint x="524" y="274" as="targetPoint" />
            <Array as="points">
              <mxPoint x="454" y="274" />
            </Array>
          </mxGeometry>
        </mxCell>
        <mxCell id="dY04rev5DjBfGKGZnwtW-18" value="Решение купить экран" style="text;html=1;strokeColor=none;fillColor=none;align=center;verticalAlign=middle;whiteSpace=wrap;rounded=0;fontSize=12;" parent="1" vertex="1">
          <mxGeometry x="360" y="184" width="160" height="30" as="geometry" />
        </mxCell>
        <mxCell id="dY04rev5DjBfGKGZnwtW-19" value="Получение экрана" style="text;html=1;strokeColor=none;fillColor=none;align=center;verticalAlign=middle;whiteSpace=wrap;rounded=0;fontSize=12;" parent="1" vertex="1">
          <mxGeometry x="1324" y="454" width="100" height="30" as="geometry" />
        </mxCell>
        <mxCell id="dY04rev5DjBfGKGZnwtW-20" value="Магазин" style="text;html=1;strokeColor=none;fillColor=none;align=center;verticalAlign=middle;whiteSpace=wrap;rounded=0;fontSize=12;" parent="1" vertex="1">
          <mxGeometry x="660" y="269" width="130" height="30" as="geometry" />
        </mxCell>
        <mxCell id="dY04rev5DjBfGKGZnwtW-21" style="edgeStyle=orthogonalEdgeStyle;rounded=0;orthogonalLoop=1;jettySize=auto;html=1;fontSize=12;endArrow=blockThin;endFill=1;entryX=0;entryY=0.5;entryDx=0;entryDy=0;" parent="1" target="dY04rev5DjBfGKGZnwtW-4" edge="1">
          <mxGeometry relative="1" as="geometry">
            <mxPoint x="413.99882352941177" y="214" as="sourcePoint" />
            <mxPoint x="483.94" y="274" as="targetPoint" />
            <Array as="points">
              <mxPoint x="414" y="354" />
            </Array>
          </mxGeometry>
        </mxCell>
        <mxCell id="dY04rev5DjBfGKGZnwtW-22" style="edgeStyle=orthogonalEdgeStyle;rounded=0;orthogonalLoop=1;jettySize=auto;html=1;fontSize=12;endArrow=blockThin;endFill=1;entryX=0;entryY=0.5;entryDx=0;entryDy=0;" parent="1" target="dY04rev5DjBfGKGZnwtW-6" edge="1">
          <mxGeometry relative="1" as="geometry">
            <mxPoint x="414" y="214" as="sourcePoint" />
            <mxPoint x="724" y="364" as="targetPoint" />
            <Array as="points">
              <mxPoint x="414" y="224" />
              <mxPoint x="414" y="404" />
            </Array>
          </mxGeometry>
        </mxCell>
        <mxCell id="dY04rev5DjBfGKGZnwtW-23" value="Покупка экрана" style="endArrow=classic;startArrow=classic;html=1;rounded=0;entryX=0.5;entryY=0;entryDx=0;entryDy=0;" parent="1" target="dY04rev5DjBfGKGZnwtW-2" edge="1">
          <mxGeometry x="0.0292" y="-14" width="50" height="50" relative="1" as="geometry">
            <mxPoint x="1224" y="444" as="sourcePoint" />
            <mxPoint x="1274" y="394" as="targetPoint" />
            <Array as="points">
              <mxPoint x="1224" y="194" />
              <mxPoint x="584" y="194" />
            </Array>
            <mxPoint as="offset" />
          </mxGeometry>
        </mxCell>
        <mxCell id="dY04rev5DjBfGKGZnwtW-24" value="" style="endArrow=classic;html=1;rounded=0;entryX=0.6;entryY=-0.003;entryDx=0;entryDy=0;entryPerimeter=0;" parent="1" target="dY04rev5DjBfGKGZnwtW-6" edge="1">
          <mxGeometry width="50" height="50" relative="1" as="geometry">
            <mxPoint x="996" y="194" as="sourcePoint" />
            <mxPoint x="994" y="380" as="targetPoint" />
          </mxGeometry>
        </mxCell>
        <mxCell id="dY04rev5DjBfGKGZnwtW-25" value="" style="endArrow=classic;html=1;rounded=0;" parent="1" edge="1">
          <mxGeometry width="50" height="50" relative="1" as="geometry">
            <mxPoint x="804" y="194" as="sourcePoint" />
            <mxPoint x="804" y="324" as="targetPoint" />
          </mxGeometry>
        </mxCell>
        <mxCell id="dY04rev5DjBfGKGZnwtW-26" value="" style="endArrow=none;html=1;rounded=0;" parent="1" edge="1">
          <mxGeometry width="50" height="50" relative="1" as="geometry">
            <mxPoint x="544" y="580" as="sourcePoint" />
            <mxPoint x="1224" y="584" as="targetPoint" />
          </mxGeometry>
        </mxCell>
        <mxCell id="dY04rev5DjBfGKGZnwtW-27" value="&lt;span style=&quot;font-family: Helvetica; font-size: 12px; font-style: normal; font-variant-ligatures: normal; font-variant-caps: normal; font-weight: 400; letter-spacing: normal; orphans: 2; text-align: center; text-indent: 0px; text-transform: none; widows: 2; word-spacing: 0px; -webkit-text-stroke-width: 0px; text-decoration-thickness: initial; text-decoration-style: initial; text-decoration-color: initial; float: none; display: inline !important;&quot;&gt;Будущий пользователь экрана&lt;/span&gt;" style="text;whiteSpace=wrap;html=1;fontColor=default;labelBackgroundColor=none;" parent="1" vertex="1">
          <mxGeometry x="434" y="504" width="90" height="33.5" as="geometry" />
        </mxCell>
      </root>
    </mxGraphModel>
  </diagram>
</mxfile>
